Proudly  Canadian

Call Me Fitz | s02 e13 | What The Fuck Is A Beaver Moon

This episode first aired on HBO Canada on 11 December 2011.

With the Beaver Moon upon him, Fitz puts together a team of unlikely experts for one last attempt to discover the identity of his shadowy nemesis. Too bad that team is the same sadsacks he sees everyday. Will they be able to save Fitz? And once and for all, will he uncover the identity of his shadowy assassin? 

[b]Cast[/b]
Jason Priestley   ...  Richard "Fitz" Fitzpatrick
Ernie Grunwald    ...  Larry, Fitz' conscience
Tracy Dawson      ...  Meghan Fitzpatrick, Fitz' sister
Peter MacNeill    ...  Ken Fitzpatrick, Fitz & Meghan's father
Amy Sloan         ...  Dot Foxley, the dealership office manager
Donavon Stinson   ...  Josh McTaggert, the dealership mechanic
Shaun Shetty      ...  Ruptal 2
Huse Madhavji     ...  Ruptal 1


Ring-a-ding-ding Fitzy and friends will be back for a third season next year. Filming was scheduled to wrap this past Saturday.



Complete name                    : Call.Me.Fitz.s02e13.What.The.Fuck.Is.A.Beaver.Moon.WS.XviD-jAh.avi
Format                           : AVI
Format/Info                      : Audio Video Interleave
File size                        : 232 MiB
Duration                         : 26mn 53s
Overall bit rate mode            : Variable
Overall bit rate                 : 1 208 Kbps
Writing application              : VirtualDubMod 1.5.10.3 | www.virtualdub-fr.org || (build 2550/release)
Writing library                  : VirtualDubMod build 2550/release

Video
ID                               : 0
Format                           : MPEG-4 Visual
Format profile                   : Advanced Simple@L5
Format settings, BVOP            : 1
Format settings, QPel            : No
Format settings, GMC             : No warppoints
Format settings, Matrix          : Default (H.263)
Codec ID                         : XVID
Codec ID/Hint                    : XviD
Duration                         : 26mn 53s
Bit rate                         : 1 072 Kbps
Width                            : 624 pixels
Height                           : 352 pixels
Display aspect ratio             : 16:9
Frame rate                       : 23.976 fps
Color space                      : YUV
Chroma subsampling               : 4:2:0
Bit depth                        : 8 bits
Scan type                        : Progressive
Compression mode                 : Lossy
Bits/(Pixel*Frame)               : 0.204
Stream size                      : 206 MiB (89%)
Writing library                  : XviD 1.2.1 (UTC 2008-12-04)

Audio
ID                               : 1
Format                           : MPEG Audio
Format version                   : Version 1
Format profile                   : Layer 3
Codec ID                         : 55
Codec ID/Hint                    : MP3
Duration                         : 26mn 53s
Bit rate mode                    : Variable
Bit rate                         : 128 Kbps
Channel(s)                       : 2 channels
Sampling rate                    : 48.0 KHz
Compression mode                 : Lossy
Stream size                      : 23.8 MiB (10%)
Alignment                        : Aligned on interleaves
Interleave, duration             : 24 ms (0.58 video frame)
Interleave, preload duration     : 149 ms
Writing library                  : LAME3.99 
Encoding settings                : -m s -V 4 -q 2 -lowpass 17 --abr 128
